<svg width="157" height="50" viewBox="0 0 157 50" fill="none" xmlns="http://www.w3.org/2000/svg">
<path d="M24.9828 9.49453C24.2109 10.3695 23.1781 11.1867 22.0359 11.8336C21.7969 11.9695 21.5531 12.0977 21.3047 12.2195C22.5016 12.4148 23.725 12.4992 24.9828 12.4992C26.2406 12.4992 27.4656 12.4148 28.6625 12.2195C28.4141 12.0977 28.1703 11.9695 27.9312 11.8336C26.7906 11.1867 25.7562 10.3695 24.9828 9.49453ZM24.9828 43.3445C27.2016 43.3445 29.3281 42.9523 31.2984 42.2352V36.8211C29.2172 36.9945 27.1172 37.068 24.9828 37.068C22.85 37.068 20.75 36.9945 18.6688 36.8211V42.2352C20.6391 42.9523 22.7656 43.3445 24.9828 43.3445ZM34.2109 40.8758C35.6125 40.0648 36.8984 39.0758 38.0344 37.9383C38.8141 37.1586 39.525 36.3102 40.1547 35.4023C38.2609 35.8727 36.3438 36.2289 34.3984 36.4883L34.2109 36.5133V40.8758ZM42.0859 31.8414C42.9594 29.6945 43.4406 27.3461 43.4406 24.8867C43.4406 19.7898 41.375 15.1742 38.0344 11.8352C35.025 8.82422 30.9812 6.84922 26.4812 6.48828C26.5187 6.62109 26.5844 6.76328 26.6719 6.91641C27.1531 7.75078 28.1609 8.62422 29.3656 9.30703C30.575 9.99453 31.9422 10.4555 33.1281 10.4555C33.6234 10.4555 34.0688 10.3742 34.4281 10.1945L34.5156 10.1445L34.5172 10.1477L34.5219 10.1445L35.2438 11.4023L35.9719 12.6586C34.7797 13.3477 33.5781 13.8852 32.3609 14.2945V18.2461C32.9922 19.0992 34.0937 19.8758 35.2953 20.3758C36.5125 20.882 37.7594 21.0805 38.5875 20.7336L39.7031 23.4195C37.6937 24.2602 35.6625 24.8664 33.5938 25.2867V28.2648L33.7656 28.5633C34.4875 29.8133 36.0281 30.8539 37.7391 31.4664C39.1688 31.9789 40.6656 32.1727 41.8438 31.9164L42.0859 31.8414ZM23.4859 6.48828C18.9859 6.84922 14.9422 8.82422 11.9312 11.8352C8.59219 15.1742 6.52656 19.7898 6.52656 24.8867C6.52656 27.3461 7.00781 29.6945 7.88125 31.8414L8.12344 31.9164C9.30156 32.1727 10.7984 31.9789 12.2281 31.4664C13.9391 30.8539 15.4797 29.8133 16.2016 28.5633L16.3734 28.2648V25.2867C14.3047 24.8664 12.2734 24.2602 10.2641 23.4195L11.3797 20.7336C12.2078 21.0805 13.4547 20.882 14.6719 20.3758C15.8734 19.8758 16.975 19.0992 17.6062 18.2461V14.2945C16.3906 13.8852 15.1875 13.3477 13.9953 12.6586L14.7234 11.4023L15.4453 10.1445L15.45 10.1477L15.4516 10.1445L15.5391 10.1945C15.8984 10.3742 16.3438 10.4555 16.8391 10.4555C18.025 10.4555 19.3906 9.99453 20.6016 9.30703C21.8062 8.62422 22.8141 7.75078 23.2953 6.91641C23.3828 6.76328 23.4484 6.62109 23.4859 6.48828ZM9.8125 35.4023C10.4422 36.3102 11.1531 37.1586 11.9312 37.9383C13.0687 39.0758 14.3547 40.0648 15.7563 40.8758V36.5133L15.5687 36.4883C13.6234 36.2289 11.7078 35.8727 9.8125 35.4023ZM40.0203 39.9227C36.1719 43.7711 30.8562 46.1523 24.9828 46.1523C19.1109 46.1523 13.7953 43.7711 9.94688 39.9227C6.09844 36.0758 3.71875 30.7586 3.71875 24.8867C3.71875 19.0148 6.09844 13.6977 9.94688 9.84922C13.7953 6.00078 19.1109 3.62109 24.9828 3.62109C30.8562 3.62109 36.1719 6.00078 40.0203 9.84922C43.8687 13.6977 46.2484 19.0148 46.2484 24.8867C46.2484 30.7586 43.8687 36.0758 40.0203 39.9227ZM29.4484 17.3195V15.0367C27.9813 15.3008 26.4969 15.4117 24.9828 15.4117C23.4703 15.4117 21.9859 15.3008 20.5187 15.0367V17.3195C22.0312 17.4539 23.5281 17.5211 25.0078 17.5211C26.4797 17.5211 27.9594 17.4523 29.4484 17.3195ZM30.6812 28.0102V25.7586C28.8094 25.9883 26.9141 26.0852 24.9828 26.0852C23.0531 26.0852 21.1578 25.9883 19.2859 25.7586V28.0086C21.2125 28.1805 23.1219 28.2648 25.0141 28.2648C26.8953 28.2648 28.7844 28.1789 30.6812 28.0102ZM35.0641 33.4602C33.7766 32.7758 32.6281 31.8758 31.8047 30.8242C29.5672 31.0508 27.3031 31.1664 25.0141 31.1664C22.7234 31.1664 20.4391 31.0523 18.1625 30.8227C17.3391 31.8758 16.1906 32.7758 14.9031 33.4602C15.25 33.5133 15.5969 33.5633 15.9453 33.6086C18.8547 33.9977 21.8625 34.1555 24.9828 34.1555C28.1047 34.1555 31.1125 33.9977 34.0219 33.6086C34.3703 33.5633 34.7172 33.5133 35.0641 33.4602ZM24.9828 23.1727C27.3937 23.1727 29.7203 23.0164 31.9781 22.632C32.3016 22.5773 32.6234 22.518 32.9438 22.4523C31.8672 21.8383 30.8953 21.0492 30.1891 20.1711C28.4828 20.3383 26.7562 20.4227 25.0078 20.4227C23.2562 20.4227 21.5141 20.3383 19.7797 20.1695C19.0734 21.0477 18.1 21.8383 17.0234 22.4523C17.3438 22.518 17.6656 22.5773 17.9891 22.632C20.2469 23.0164 22.5734 23.1727 24.9828 23.1727Z" fill="#FB0244"/>
<path d="M54.9941 39.3996V32.948H57.8879C58.6316 32.948 59.1957 33.1371 59.5754 33.5168C59.8629 33.8027 60.0082 34.1652 60.0082 34.6012C60.0082 35.2434 59.7004 35.7215 59.0879 36.0387C59.4988 36.1793 59.816 36.3715 60.0348 36.6199C60.2566 36.8684 60.3676 37.2043 60.3676 37.6309C60.3676 38.1965 60.152 38.6355 59.7238 38.9402C59.2941 39.2465 58.7145 39.3996 57.9816 39.3996H54.9941ZM105.83 31.3574H108.411V32.3074H105.83V31.3574ZM56.1082 38.3949H57.991C58.3832 38.3949 58.6895 38.3184 58.9082 38.1637C59.1238 38.009 59.2332 37.784 59.2332 37.4902C59.2332 37.2137 59.1223 36.9996 58.9004 36.8512C58.6785 36.7012 58.3473 36.6246 57.9035 36.6246H56.1082V38.3949ZM56.1082 35.6574H57.6551C58.0332 35.6574 58.3301 35.5824 58.5473 35.4324C58.7645 35.2809 58.8738 35.0605 58.8738 34.7668C58.8738 34.5137 58.7754 34.3137 58.577 34.1684C58.3785 34.0246 58.1019 33.9527 57.7394 33.9527H56.1082V35.6574ZM62.7504 39.3996V32.948H63.866V37.659L67.1285 32.948H68.1895V39.3996H67.0738V34.7027L63.8223 39.3996H62.7504ZM70.4285 38.4527L71.0441 37.6668C71.6426 38.2387 72.3582 38.5246 73.1926 38.5246C73.5457 38.5246 73.8441 38.4371 74.0895 38.2605C74.3332 38.0855 74.4566 37.8496 74.4566 37.5543C74.4566 37.2387 74.3207 37.0043 74.0504 36.848C73.7785 36.6934 73.4207 36.6168 72.9754 36.6168H72.2441V35.6762H72.9676C73.3832 35.6762 73.7082 35.5949 73.9441 35.4309C74.1816 35.2668 74.3004 35.0324 74.3004 34.7309C74.3004 34.4621 74.1879 34.2418 73.9613 34.0746C73.7379 33.9059 73.4426 33.823 73.0801 33.823C72.7082 33.823 72.3785 33.884 72.0879 34.0043C71.7988 34.1246 71.527 34.3059 71.2754 34.5465L70.6676 33.8059C71.002 33.4902 71.3644 33.2512 71.7582 33.084C72.1504 32.9199 72.616 32.8371 73.1566 32.8371C73.8223 32.8371 74.366 32.9996 74.7848 33.3246C75.2035 33.648 75.4145 34.0621 75.4145 34.5637C75.4145 35.2637 75.052 35.7652 74.327 36.073C74.7113 36.1887 75.0191 36.3762 75.2473 36.6355C75.477 36.8949 75.591 37.223 75.591 37.623C75.591 38.1652 75.3723 38.6152 74.9363 38.973C74.4988 39.3309 73.927 39.5105 73.2191 39.5105C72.6098 39.5105 72.0863 39.4246 71.6457 39.2512C71.2066 39.0777 70.8004 38.8121 70.4285 38.4527ZM77.7379 36.1746C77.7379 35.723 77.8223 35.2949 77.9895 34.8887C78.1566 34.4809 78.3894 34.1277 78.6816 33.8246C78.9769 33.523 79.3348 33.284 79.7582 33.1043C80.1816 32.9262 80.6348 32.8371 81.116 32.8371C81.6035 32.8371 82.0582 32.9246 82.477 33.0996C82.8973 33.2762 83.2535 33.5152 83.5457 33.8137C83.8395 34.1137 84.0676 34.4684 84.2348 34.8777C84.402 35.2855 84.4848 35.7184 84.4848 36.1746C84.4848 36.623 84.4004 37.0527 84.2332 37.459C84.0645 37.8684 83.8332 38.2215 83.5395 38.523C83.2441 38.8246 82.8848 39.0652 82.4613 39.2434C82.0379 39.4215 81.5832 39.5105 81.1004 39.5105C80.4551 39.5105 79.8738 39.3605 79.3582 39.059C78.8426 38.7574 78.4426 38.3543 78.1598 37.8465C77.8785 37.3402 77.7379 36.7824 77.7379 36.1746ZM78.9254 36.1746C78.9254 36.5934 79.0176 36.9777 79.202 37.3277C79.3863 37.6793 79.6488 37.959 79.9863 38.1668C80.3223 38.373 80.7004 38.4777 81.116 38.4777C81.5348 38.4777 81.9098 38.3746 82.2441 38.1699C82.5801 37.9621 82.8379 37.684 83.0207 37.3355C83.2035 36.9855 83.2957 36.598 83.2957 36.1746C83.2957 35.7543 83.2019 35.3699 83.016 35.0184C82.8301 34.6684 82.5691 34.3887 82.2301 34.1809C81.8941 33.9746 81.516 33.8699 81.1004 33.8699C80.6816 33.8699 80.3066 33.973 79.9723 34.1777C79.6379 34.3855 79.3801 34.6637 79.1988 35.0121C79.016 35.3621 78.9254 35.748 78.9254 36.1746ZM86.9598 39.3996V32.948H89.8551C90.5988 32.948 91.1613 33.1371 91.5426 33.5168C91.8301 33.8027 91.9754 34.1652 91.9754 34.6012C91.9754 35.2434 91.6676 35.7215 91.0551 36.0387C91.466 36.1793 91.7832 36.3715 92.0019 36.6199C92.2238 36.8684 92.3348 37.2043 92.3348 37.6309C92.3348 38.1965 92.1191 38.6355 91.691 38.9402C91.2613 39.2465 90.6801 39.3996 89.9488 39.3996H86.9598ZM88.0754 38.3949H89.9582C90.3519 38.3949 90.6566 38.3184 90.8754 38.1637C91.091 38.009 91.2004 37.784 91.2004 37.4902C91.2004 37.2137 91.0894 36.9996 90.8676 36.8512C90.6457 36.7012 90.3144 36.6246 89.8707 36.6246H88.0754V38.3949ZM88.0754 35.6574H89.6223C90.0004 35.6574 90.2973 35.5824 90.5145 35.4324C90.7316 35.2809 90.841 35.0605 90.841 34.7668C90.841 34.5137 90.7426 34.3137 90.5441 34.1684C90.3457 34.0246 90.0676 33.9527 89.7066 33.9527H88.0754V35.6574ZM94.7176 39.3996V32.948H95.8332V35.2699H97.3176C98.0551 35.2699 98.6426 35.4465 99.0816 35.8027C99.5223 36.1559 99.741 36.6527 99.741 37.2918C99.741 37.9418 99.5238 38.4574 99.0863 38.8324C98.6488 39.2105 98.0582 39.3996 97.3129 39.3996H94.7176ZM95.8332 38.3949H97.2957C97.7207 38.3949 98.0473 38.2996 98.2785 38.1105C98.5113 37.9199 98.6254 37.6434 98.6254 37.284C98.6254 36.9512 98.5098 36.698 98.2754 36.5215C98.0395 36.3449 97.7066 36.2574 97.277 36.2574H95.8332V38.3949ZM100.516 39.3996V32.948H101.632V39.3996H100.516ZM104.402 39.3996V32.948H105.518V37.659L108.779 32.948H109.841V39.3996H108.724V34.7027L105.472 39.3996H104.402ZM116.483 39.3996V32.948H117.618V38.3668H120.641V32.948H121.755V38.3668H122.643L122.485 40.7637H121.46V39.3996H116.483ZM124.682 39.3996V32.948H129.466V33.9527H125.816V35.648H129.05V36.6527H125.816V38.3949H129.51V39.3996H124.682ZM131.963 39.3996V32.948H133.097V35.6309H136.175V32.948H137.31V39.3996H136.175V36.6809H133.097V39.3996H131.963ZM139.602 33.998V32.948H144.838V33.998H142.793V39.3996H141.658V33.998H139.602ZM147.15 39.3996V32.948H149.704C150.454 32.948 151.052 33.1449 151.494 33.5387C151.935 33.9324 152.157 34.4621 152.157 35.123C152.157 35.5934 152.038 35.9996 151.802 36.3387C151.566 36.6777 151.255 36.9277 150.872 37.0918C150.489 37.2543 150.055 37.3355 149.571 37.3355H148.285V39.3996H147.15ZM148.285 36.3027H149.604C150.027 36.3027 150.364 36.1949 150.616 35.9809C150.868 35.7668 150.994 35.484 150.994 35.1324C150.994 34.7605 150.871 34.4746 150.622 34.2762C150.375 34.0777 150.036 33.9809 149.604 33.9809H148.285V36.3027Z" fill="#3B4569"/>
<path d="M68.3105 26.7605H64.4074L58.8371 19.9621L57.5637 21.3637V26.7605H54.5293V10.084H57.5637V17.0793L64.0246 10.084H67.8699L60.898 17.7043L68.3105 26.7605ZM73.0809 26.7605H69.9309V10.084H73.0809V16.9402H80.5402V10.084H83.6887V26.7605H80.5402V19.8809H73.0809V26.7605ZM86.9324 26.7605V10.084H93.973C94.5059 10.084 94.9699 10.1152 95.3637 10.1762C96.8059 10.4012 97.8871 10.9918 98.6012 11.9527C99.3152 12.9137 99.6715 14.1293 99.6715 15.5965C99.6715 17.0559 99.3121 18.2684 98.5934 19.2324C97.8762 20.198 96.7996 20.7918 95.3637 21.0168C94.9699 21.0777 94.5059 21.109 93.973 21.109H90.0824V26.7605H86.9324ZM93.834 18.1668C94.2746 18.1668 94.6293 18.1293 94.8996 18.0512C95.4793 17.8965 95.8918 17.584 96.1355 17.1168C96.3777 16.6496 96.498 16.1449 96.498 15.5965C96.498 15.048 96.3777 14.5387 96.1355 14.0715C95.8918 13.6043 95.4793 13.2949 94.8996 13.1418C94.6293 13.0637 94.2746 13.0262 93.834 13.0262H90.0824V18.1668H93.834ZM101.964 26.7605V14.2527H107.825C108.65 14.2527 109.345 14.3387 109.909 14.5074C110.557 14.709 111.096 15.0668 111.529 15.584C111.962 16.1027 112.178 16.7934 112.178 17.6574C112.178 18.1824 112.093 18.6184 111.923 18.9699C111.754 19.3215 111.514 19.6184 111.206 19.8574C110.928 20.0668 110.65 20.2059 110.371 20.2746C110.696 20.3215 110.989 20.4059 111.251 20.5293C111.723 20.7387 112.101 21.0512 112.382 21.4684C112.665 21.8855 112.804 22.4527 112.804 23.1699C112.804 24.0199 112.6 24.734 112.186 25.3121C111.773 25.8918 111.167 26.2965 110.371 26.5293C109.839 26.684 109.121 26.7605 108.217 26.7605H101.964ZM107.082 19.3027C107.646 19.3027 108.064 19.2402 108.334 19.1168C108.526 19.0246 108.676 18.8777 108.781 18.6777C108.886 18.4762 108.936 18.2449 108.936 17.9824C108.936 17.6965 108.878 17.4449 108.757 17.234C108.639 17.0215 108.457 16.8777 108.217 16.8012C107.986 16.723 107.607 16.6855 107.082 16.6855H105.161V19.3027H107.082ZM107.986 24.3746C108.342 24.3746 108.665 24.3137 108.959 24.1887C109.167 24.1043 109.325 23.9543 109.429 23.7371C109.534 23.5215 109.584 23.2855 109.584 23.0309C109.584 22.7309 109.518 22.4824 109.387 22.2934C109.256 22.1043 109.09 21.9652 108.889 21.873C108.689 21.7809 108.387 21.734 107.986 21.734H105.161V24.3746H107.986ZM123.782 14.2527H126.261V26.7605H123.25V19.1168L117.598 26.7605H115.096V14.2527H118.107V21.6418L123.782 14.2527ZM137.818 20.1824C138.228 20.5137 138.548 20.9199 138.776 21.4027C139.003 21.8855 139.115 22.4215 139.115 23.0074C139.115 23.873 138.884 24.6137 138.417 25.2324C137.95 25.8496 137.32 26.3168 136.532 26.6324C135.745 26.9496 134.876 27.1074 133.928 27.1074C132.753 27.1074 131.673 26.8652 130.681 26.3824C129.689 25.8996 128.909 25.2402 128.345 24.398L130.823 22.7309C131.757 23.6871 132.784 24.1668 133.904 24.1668C134.521 24.1668 135.007 24.0309 135.364 23.7652C135.718 23.498 135.896 23.1387 135.896 22.684C135.896 22.2137 135.726 21.9043 135.382 21.7574C135.039 21.6105 134.545 21.5371 133.904 21.5371L133.117 21.5496H132.375V19.0934H133.117C133.634 19.0934 134.054 19.0699 134.379 19.0246C134.703 18.9777 134.965 18.873 135.162 18.7152C135.359 18.5574 135.456 18.3137 135.456 17.9824C135.456 17.5809 135.309 17.2871 135.015 17.1012C134.721 16.9168 134.343 16.8246 133.881 16.8246C133.364 16.8246 132.826 16.9355 132.267 17.1605C131.707 17.384 131.171 17.673 130.661 18.0277L128.925 15.8746C129.657 15.2574 130.461 14.7746 131.332 14.4262C132.206 14.0793 133.101 13.9059 134.02 13.9059C134.846 13.9059 135.618 14.048 136.332 14.334C137.046 14.6199 137.617 15.048 138.05 15.6199C138.482 16.1902 138.698 16.8777 138.698 17.6809C138.698 18.584 138.404 19.4184 137.818 20.1824ZM151.646 16.1762C151.87 16.5918 152.012 17.0137 152.07 17.4418C152.128 17.8699 152.156 18.4293 152.156 19.1168V26.7605H149.4V25.2324C148.843 25.8949 148.234 26.3746 147.568 26.6684C146.906 26.9605 146.095 27.1074 145.137 27.1074C144.273 27.1074 143.528 26.9387 142.898 26.6027C142.268 26.2668 141.79 25.8105 141.462 25.2324C141.134 24.6527 140.968 24.0121 140.968 23.309C140.968 22.398 141.181 21.6293 141.606 21.0043C142.029 20.3793 142.728 19.8887 143.701 19.534C144.242 19.334 144.901 19.159 145.681 19.0168C146.461 18.873 147.584 18.6965 149.051 18.4809C148.99 17.8934 148.778 17.4605 148.411 17.1871C148.043 16.9121 147.492 16.7777 146.759 16.7777C146.226 16.7777 145.72 16.9012 145.242 17.148C144.762 17.3949 144.436 17.7809 144.257 18.3059L141.409 17.4027C141.732 16.3215 142.342 15.4684 143.239 14.8434C144.134 14.2184 145.307 13.9059 146.759 13.9059C149.221 13.9059 150.851 14.6621 151.646 16.1762ZM148.704 22.9621C148.904 22.5527 149.014 21.9074 149.028 21.0277C147.94 21.2137 147.14 21.3605 146.631 21.4684C146.121 21.5762 145.693 21.6949 145.346 21.8262C144.89 22.0121 144.562 22.2168 144.357 22.4449C144.153 22.673 144.048 22.9465 144.048 23.2637C144.048 23.6871 144.207 24.0199 144.52 24.2621C144.832 24.5059 145.261 24.6293 145.809 24.6293C146.342 24.6293 146.809 24.5324 147.211 24.3434C147.612 24.1543 147.936 23.9355 148.179 23.6793C148.423 23.4246 148.596 23.1855 148.704 22.9621Z" fill="#0F1B47"/>
</svg>
